<?xml version="1.0" encoding="utf-8"?>
<!-- Generator: Adobe Illustrator 18.1.1, SVG Export Plug-In . SVG Version: 6.00 Build 0)  -->
<svg version="1.1" id="Capa_1" xmlns="http://www.w3.org/2000/svg" xmlns:xlink="http://www.w3.org/1999/xlink" x="0px" y="0px"
	 viewBox="39.8 156.6 133 278" enable-background="new 39.8 156.6 133 278" xml:space="preserve">
<g>
	<path fill="#FFFFFF" d="M172.7,280.8h-33.3v86.1c0,23.4-9.4,41.3-37.2,41.3c-18.1,0-29-9.7-29-36.3v-91.1H39.8v94.3
		c0,39.5,17,59.5,56.5,59.5c16.7,0,34.8-9.9,43-25.3h0.6v21.1h32.7V280.8L172.7,280.8z"/>
	<polygon fill="#CB0017" points="59.1,239.3 153.4,239.3 153.4,255.9 59.1,255.9 	"/>
	<path fill="#CB0017" d="M94.9,168.4c0-6.5,5.2-11.8,11.8-11.8s11.8,5.2,11.8,11.8s-5.2,11.8-11.8,11.8S94.9,174.9,94.9,168.4
		L94.9,168.4z"/>
	<path fill="#CB0017" d="M39.8,208.8c0-10.7,8.6-19.5,19.5-19.5c10.7,0,19.5,8.6,19.5,19.5c0,10.7-8.6,19.5-19.5,19.5
		S39.8,219.4,39.8,208.8L39.8,208.8z"/>
	<path fill="#CB0017" d="M87,208.8c0-10.7,8.6-19.5,19.5-19.5c10.7,0,19.5,8.6,19.5,19.5c0,10.7-8.6,19.5-19.5,19.5
		S87,219.4,87,208.8L87,208.8z"/>
	<path fill="#CB0017" d="M134,208.8c0-10.7,8.6-19.5,19.5-19.5c10.7,0,19.5,8.6,19.5,19.5c0,10.7-8.6,19.5-19.5,19.5
		C142.7,228.2,134,219.4,134,208.8L134,208.8z"/>
</g>
</svg>
